<svg width="1000" height="1200" xmlns="http://www.w3.org/2000/svg" font-family="Arial, sans-serif">
  <defs>
    <marker id="arrow" markerWidth="10" markerHeight="10" refX="8" refY="3" orient="auto" markerUnits="strokeWidth">
      <path d="M0,0 L0,6 L9,3 z" fill="#333"/>
    </marker>
    <marker id="arrow-green" markerWidth="10" markerHeight="10" refX="8" refY="3" orient="auto" markerUnits="strokeWidth">
      <path d="M0,0 L0,6 L9,3 z" fill="#22aa22"/>
    </marker>
    <marker id="arrow-orange" markerWidth="10" markerHeight="10" refX="8" refY="3" orient="auto" markerUnits="strokeWidth">
      <path d="M0,0 L0,6 L9,3 z" fill="#ff8800"/>
    </marker>
  </defs>

  <!-- Fundo -->
  <rect width="100%" height="100%" fill="#f9f9f9"/>

  <!-- Título -->
  <text x="500" y="35" font-size="26" text-anchor="middle" font-weight="bold">Fluxo Eva-Mind: Chamadas de Voz com IA</text>

  <!-- FASE 1: Agendamento e Disparo -->
  <rect x="50" y="60" width="900" height="140" rx="10" fill="#e3f2fd" stroke="#1976d2" stroke-width="2"/>
  <text x="70" y="85" font-size="16" font-weight="bold" fill="#1565c0">1. Agendamento e Disparo</text>
  
  <g>
    <rect x="80" y="100" width="250" height="85" rx="8" fill="#bbdefb"/>
    <text x="205" y="125" font-size="13" text-anchor="middle" font-weight="bold">scheduler.go + dispatcher.go</text>
    <text x="205" y="142" font-size="11" text-anchor="middle">+ worker.go</text>
    <text x="205" y="160" font-size="10" text-anchor="middle">→ Ticker verifica DB (GetPendingCalls)</text>
    <text x="205" y="175" font-size="10" text-anchor="middle">→ Atualiza status → Monta prompt</text>
  </g>

  <g>
    <rect x="360" y="100" width="250" height="85" rx="8" fill="#bbdefb"/>
    <text x="485" y="125" font-size="13" text-anchor="middle" font-weight="bold">Cria Cliente Gemini</text>
    <text x="485" y="145" font-size="10" text-anchor="middle">gemini/client.go</text>
    <text x="485" y="162" font-size="10" text-anchor="middle">→ Armazena sessão</text>
    <text x="485" y="177" font-size="10" text-anchor="middle">(voice/session.go)</text>
  </g>

  <g>
    <rect x="640" y="100" width="280" height="85" rx="8" fill="#bbdefb"/>
    <text x="780" y="125" font-size="13" text-anchor="middle" font-weight="bold">Inicia Chamada Twilio</text>
    <text x="780" y="145" font-size="10" text-anchor="middle">outbound.go / client.go</text>
    <text x="780" y="162" font-size="10" text-anchor="middle">URL: /calls/twiml?ag_id=...</text>
  </g>

  <line x1="330" y1="142" x2="360" y2="142" stroke="#1976d2" stroke-width="2" marker-end="url(#arrow)"/>
  <line x1="610" y1="142" x2="640" y2="142" stroke="#1976d2" stroke-width="2" marker-end="url(#arrow)"/>

  <!-- FASE 2: TwiML -->
  <rect x="50" y="230" width="900" height="100" rx="10" fill="#fff3e0" stroke="#f57c00" stroke-width="2"/>
  <text x="70" y="255" font-size="16" font-weight="bold" fill="#e65100">2. Resposta TwiML</text>
  
  <g>
    <rect x="300" y="270" width="400" height="50" rx="8" fill="#ffe0b2"/>
    <text x="500" y="292" font-size="13" text-anchor="middle" font-weight="bold">twiml_handler.go</text>
    <text x="500" y="310" font-size="11" text-anchor="middle">Retorna: &lt;Connect&gt;&lt;Stream url="wss://dominio/media?..."&gt;</text>
  </g>

  <line x1="780" y1="185" x2="780" y2="250" stroke="#ff8800" stroke-width="2" marker-end="url(#arrow-orange)"/>
  <text x="800" y="220" font-size="10" fill="#e65100">Twilio solicita TwiML</text>

  <!-- FASE 3: WebSocket Twilio -->
  <rect x="50" y="360" width="900" height="120" rx="10" fill="#e8f5e9" stroke="#388e3c" stroke-width="2"/>
  <text x="70" y="385" font-size="16" font-weight="bold" fill="#2e7d32">3. Conexão WebSocket Twilio</text>
  
  <g>
    <rect x="200" y="400" width="600" height="65" rx="8" fill="#c8e6c9"/>
    <text x="500" y="422" font-size="13" text-anchor="middle" font-weight="bold">handler.go (voice)</text>
    <text x="500" y="440" font-size="11" text-anchor="middle">→ Upgrade WebSocket | Extrai agendamento_id</text>
    <text x="500" y="457" font-size="11" text-anchor="middle">→ Busca contexto idoso/remédios (agendamentos.go)</text>
  </g>

  <line x1="500" y1="320" x2="500" y2="360" stroke="#22aa22" stroke-width="2" marker-end="url(#arrow-green)"/>
  <text x="520" y="345" font-size="10" fill="#2e7d32">Twilio conecta WS</text>

  <!-- FASE 4: Conversa Tempo Real -->
  <rect x="50" y="510" width="900" height="320" rx="10" fill="#f3e5f5" stroke="#7b1fa2" stroke-width="2"/>
  <text x="70" y="535" font-size="16" font-weight="bold" fill="#6a1b9a">4. Conversa em Tempo Real (Loops Bidirecionais)</text>
  
  <!-- Session.go central -->
  <g>
    <rect x="350" y="560" width="300" height="100" rx="8" fill="#e1bee7" stroke="#7b1fa2" stroke-width="2"/>
    <text x="500" y="585" font-size="14" text-anchor="middle" font-weight="bold">session.go (voice)</text>
    <text x="500" y="605" font-size="11" text-anchor="middle">• Cria WS Gemini Live API</text>
    <text x="500" y="622" font-size="11" text-anchor="middle">• Envia setup + system_instruction</text>
    <text x="500" y="639" font-size="11" text-anchor="middle">• Goroutines bidirecionais</text>
  </g>

  <!-- Twilio lado esquerdo -->
  <g>
    <rect x="70" y="690" width="220" height="120" rx="8" fill="#b3e5fc" stroke="#0277bd" stroke-width="2"/>
    <text x="180" y="715" font-size="13" text-anchor="middle" font-weight="bold">📞 Twilio</text>
    <text x="180" y="735" font-size="10" text-anchor="middle">Envia JSON "media":</text>
    <text x="180" y="752" font-size="10" text-anchor="middle" font-weight="bold">mu-law 8kHz</text>
    <text x="180" y="768" font-size="10" text-anchor="middle">8-bit mono</text>
    <text x="180" y="784" font-size="10" text-anchor="middle">base64</text>
    <text x="180" y="802" font-size="9" text-anchor="middle" fill="#01579b">(Twilio Media Streams)</text>
  </g>

  <!-- Gemini lado direito -->
  <g>
    <rect x="710" y="690" width="220" height="120" rx="8" fill="#ffccbc" stroke="#d84315" stroke-width="2"/>
    <text x="820" y="715" font-size="13" text-anchor="middle" font-weight="bold">🤖 Gemini Live API</text>
    <text x="820" y="735" font-size="10" text-anchor="middle">Input:</text>
    <text x="820" y="752" font-size="10" text-anchor="middle" font-weight="bold">PCM 16kHz</text>
    <text x="820" y="768" font-size="10" text-anchor="middle">16-bit mono</text>
    <text x="820" y="787" font-size="10" text-anchor="middle">Output:</text>
    <text x="820" y="802" font-size="10" text-anchor="middle" font-weight="bold">PCM 24kHz base64</text>
  </g>

  <!-- Setas conversão -->
  <line x1="290" y1="730" x2="350" y2="610" stroke="#7b1fa2" stroke-width="2.5" marker-end="url(#arrow)"/>
  <text x="305" y="665" font-size="9" fill="#6a1b9a" font-weight="bold">Decode base64</text>
  <text x="305" y="678" font-size="9" fill="#6a1b9a" font-weight="bold">mu-law → PCM</text>
  <text x="305" y="691" font-size="9" fill="#6a1b9a" font-weight="bold">8→16kHz</text>

  <line x1="650" y1="610" x2="710" y2="730" stroke="#7b1fa2" stroke-width="2.5" marker-end="url(#arrow)"/>
  <text x="660" y="665" font-size="9" fill="#6a1b9a" font-weight="bold">SendAudio</text>
  <text x="660" y="678" font-size="9" fill="#6a1b9a" font-weight="bold">→ Gemini</text>

  <line x1="710" y1="770" x2="650" y2="640" stroke="#d84315" stroke-width="2.5" marker-end="url(#arrow)"/>
  <text x="660" y="705" font-size="9" fill="#d84315" font-weight="bold">Response</text>
  <text x="660" y="718" font-size="9" fill="#d84315" font-weight="bold">base64</text>

  <line x1="350" y1="640" x2="290" y2="770" stroke="#d84315" stroke-width="2.5" marker-end="url(#arrow)"/>
  <text x="305" y="715" font-size="9" fill="#d84315" font-weight="bold">24→8kHz</text>
  <text x="305" y="728" font-size="9" fill="#d84315" font-weight="bold">PCM → mu-law</text>
  <text x="305" y="741" font-size="9" fill="#d84315" font-weight="bold">JSON "media"</text>

  <line x1="500" y1="465" x2="500" y2="560" stroke="#7b1fa2" stroke-width="2" marker-end="url(#arrow)"/>

  <!-- DB Updates -->
  <g>
    <rect x="380" y="760" width="240" height="50" rx="8" fill="#fff9c4" stroke="#f57f17" stroke-width="1.5"/>
    <text x="500" y="780" font-size="11" text-anchor="middle" font-weight="bold">📊 DB Updates</text>
    <text x="500" y="797" font-size="10" text-anchor="middle">historico.go + agendamentos.go</text>
  </g>

  <!-- FASE 5: Fim -->
  <rect x="50" y="860" width="900" height="90" rx="10" fill="#ffebee" stroke="#c62828" stroke-width="2"/>
  <text x="70" y="885" font-size="16" font-weight="bold" fill="#b71c1c">5. Fim / Cleanup</text>
  
  <g>
    <rect x="250" y="900" width="500" height="40" rx="8" fill="#ffcdd2"/>
    <text x="500" y="925" font-size="12" text-anchor="middle">Evento "stop" ou erro → Fecha conexões → Atualiza DB (status concluído/falhou)</text>
  </g>

  <!-- Nota importante -->
  <rect x="100" y="980" width="800" height="190" rx="10" fill="#fff8e1" stroke="#f57f17" stroke-width="2"/>
  <text x="500" y="1010" font-size="15" text-anchor="middle" font-weight="bold" fill="#f57f17">⚠️ PROBLEMA ATUAL NO CÓDIGO</text>
  <text x="120" y="1040" font-size="12" fill="#333">• Código atual envia áudio direto sem conversão completa (apenas decode base64)</text>
  <text x="120" y="1065" font-size="12" fill="#333" font-weight="bold">• NECESSÁRIO implementar:</text>
  <text x="140" y="1085" font-size="11" fill="#d32f2f">→ Conversão mu-law → linear PCM + resample 8kHz→16kHz (input Gemini)</text>
  <text x="140" y="1103" font-size="11" fill="#d32f2f">→ Conversão PCM 24kHz→8kHz + linear PCM → mu-law (output Twilio)</text>
  <text x="120" y="1125" font-size="11" fill="#333">• Usar libs Go: github.com/go-audio/audio + github.com/zaf/resample</text>
  <text x="120" y="1145" font-size="11" fill="#333">• Conversão stub atual em: audio.go / vad.go</text>
  <text x="120" y="1162" font-size="10" fill="#666" font-style="italic">(Sem conversão correta = áudio distorcido ou não funciona)</text>

</svg>